<svg width="45" height="45" viewBox="0 0 45 45" fill="none" xmlns="http://www.w3.org/2000/svg">
<circle cx="22.5" cy="22.5" r="22.5" fill="#D9D9D9"/>
<path d="M14.5512 30.57C15.0366 30.5527 15.4092 30.4747 15.6692 30.336C15.9292 30.18 16.1112 29.92 16.2152 29.556C16.3192 29.1747 16.3712 28.6547 16.3712 27.996V17.622C16.3712 17.1887 16.3799 16.7727 16.3972 16.374C16.4319 15.9753 16.4579 15.6633 16.4752 15.438C16.1806 15.4553 15.8426 15.4727 15.4612 15.49C15.0799 15.49 14.7766 15.4987 14.5512 15.516V13.8L21.6232 13.774C23.2872 13.774 24.7519 14.008 26.0172 14.476C27.2999 14.9267 28.3659 15.568 29.2152 16.4C30.0646 17.232 30.7059 18.194 31.1392 19.286C31.5899 20.378 31.8152 21.548 31.8152 22.796C31.8152 23.888 31.6159 24.98 31.2172 26.072C30.8359 27.164 30.2379 28.1607 29.4232 29.062C28.6259 29.946 27.5859 30.6567 26.3032 31.194C25.0379 31.7313 23.5299 32 21.7792 32H14.5512V30.57ZM19.6472 28.126C19.6472 28.594 19.6386 29.0273 19.6212 29.426C19.6039 29.8247 19.5779 30.1367 19.5432 30.362C19.8206 30.362 20.1239 30.3707 20.4532 30.388C20.7826 30.388 21.1032 30.3967 21.4152 30.414C21.7272 30.414 21.9612 30.414 22.1172 30.414C23.1226 30.414 24.0066 30.2147 24.7692 29.816C25.5319 29.4173 26.1646 28.88 26.6672 28.204C27.1872 27.528 27.5772 26.7567 27.8372 25.89C28.0972 25.006 28.2272 24.0787 28.2272 23.108C28.2272 21.392 27.9586 19.962 27.4212 18.818C26.9012 17.6567 26.1472 16.7813 25.1592 16.192C24.1712 15.5853 22.9492 15.2733 21.4932 15.256C21.0079 15.2387 20.6266 15.308 20.3492 15.464C20.0719 15.62 19.8812 15.88 19.7772 16.244C19.6906 16.608 19.6472 17.1193 19.6472 17.778V28.126Z" fill="#3F4F23"/>
</svg>
